<svg width="100" height="20" viewBox="0 0 100 20" fill="none" xmlns="http://www.w3.org/2000/svg">
<path d="M16.2334 10.2917C14.925 6.89168 10.2667 6.70835 11.3917 1.76668C11.475 1.40002 11.0834 1.11668 10.7667 1.30835C7.74171 3.09168 5.56671 6.66668 7.39171 11.35C7.54171 11.7333 7.09171 12.0917 6.76671 11.8417C5.25837 10.7 5.10004 9.05835 5.23337 7.88335C5.28337 7.45001 4.71671 7.24168 4.47504 7.60001C3.90837 8.46668 3.33337 9.86668 3.33337 11.975C3.65004 16.6417 7.59171 18.075 9.00837 18.2583C11.0334 18.5167 13.225 18.1417 14.8 16.7C16.5334 15.0917 17.1667 12.525 16.2334 10.2917ZM8.50004 14.4833C9.70004 14.1917 10.3167 13.325 10.4834 12.5583C10.7584 11.3667 9.68337 10.2 10.4084 8.31668C10.6834 9.87501 13.1334 10.85 13.1334 12.55C13.2 14.6583 10.9167 16.4667 8.50004 14.4833Z" fill="url(#paint0_linear_353_6127)"/>
<path d="M36.2334 10.2917C34.925 6.89168 30.2667 6.70835 31.3917 1.76668C31.475 1.40002 31.0834 1.11668 30.7667 1.30835C27.7417 3.09168 25.5667 6.66668 27.3917 11.35C27.5417 11.7333 27.0917 12.0917 26.7667 11.8417C25.2584 10.7 25.1 9.05835 25.2334 7.88335C25.2834 7.45001 24.7167 7.24168 24.475 7.60001C23.9084 8.46668 23.3334 9.86668 23.3334 11.975C23.65 16.6417 27.5917 18.075 29.0084 18.2583C31.0334 18.5167 33.225 18.1417 34.8 16.7C36.5334 15.0917 37.1667 12.525 36.2334 10.2917ZM28.5 14.4833C29.7 14.1917 30.3167 13.325 30.4834 12.5583C30.7584 11.3667 29.6834 10.2 30.4084 8.31668C30.6834 9.87501 33.1334 10.85 33.1334 12.55C33.2 14.6583 30.9167 16.4667 28.5 14.4833Z" fill="url(#paint1_linear_353_6127)"/>
<path d="M56.2333 10.2917C54.9249 6.89168 50.2666 6.70835 51.3916 1.76668C51.4749 1.40002 51.0833 1.11668 50.7666 1.30835C47.7416 3.09168 45.5666 6.66668 47.3916 11.35C47.5416 11.7333 47.0916 12.0917 46.7666 11.8417C45.2583 10.7 45.0999 9.05835 45.2333 7.88335C45.2833 7.45001 44.7166 7.24168 44.4749 7.60001C43.9083 8.46668 43.3333 9.86668 43.3333 11.975C43.6499 16.6417 47.5916 18.075 49.0083 18.2583C51.0333 18.5167 53.2249 18.1417 54.7999 16.7C56.5333 15.0917 57.1666 12.525 56.2333 10.2917ZM48.4999 14.4833C49.6999 14.1917 50.3166 13.325 50.4833 12.5583C50.7583 11.3667 49.6833 10.2 50.4083 8.31668C50.6833 9.87501 53.1333 10.85 53.1333 12.55C53.1999 14.6583 50.9166 16.4667 48.4999 14.4833Z" fill="url(#paint2_linear_353_6127)"/>
<path d="M76.2333 10.2917C74.9249 6.89168 70.2666 6.70835 71.3916 1.76668C71.4749 1.40002 71.0833 1.11668 70.7666 1.30835C67.7416 3.09168 65.5666 6.66668 67.3916 11.35C67.5416 11.7333 67.0916 12.0917 66.7666 11.8417C65.2583 10.7 65.0999 9.05835 65.2333 7.88335C65.2833 7.45001 64.7166 7.24168 64.4749 7.60001C63.9083 8.46668 63.3333 9.86668 63.3333 11.975C63.6499 16.6417 67.5916 18.075 69.0083 18.2583C71.0333 18.5167 73.2249 18.1417 74.7999 16.7C76.5333 15.0917 77.1666 12.525 76.2333 10.2917ZM68.4999 14.4833C69.6999 14.1917 70.3166 13.325 70.4833 12.5583C70.7583 11.3667 69.6833 10.2 70.4083 8.31668C70.6833 9.87501 73.1333 10.85 73.1333 12.55C73.1999 14.6583 70.9166 16.4667 68.4999 14.4833Z" fill="#DADADA"/>
<path d="M96.2333 10.2917C94.9249 6.89168 90.2666 6.70835 91.3916 1.76668C91.4749 1.40002 91.0833 1.11668 90.7666 1.30835C87.7416 3.09168 85.5666 6.66668 87.3916 11.35C87.5416 11.7333 87.0916 12.0917 86.7666 11.8417C85.2583 10.7 85.0999 9.05835 85.2333 7.88335C85.2833 7.45001 84.7166 7.24168 84.4749 7.60001C83.9083 8.46668 83.3333 9.86668 83.3333 11.975C83.6499 16.6417 87.5916 18.075 89.0083 18.2583C91.0333 18.5167 93.2249 18.1417 94.7999 16.7C96.5333 15.0917 97.1666 12.525 96.2333 10.2917ZM88.4999 14.4833C89.6999 14.1917 90.3166 13.325 90.4833 12.5583C90.7583 11.3667 89.6833 10.2 90.4083 8.31668C90.6833 9.87501 93.1333 10.85 93.1333 12.55C93.1999 14.6583 90.9166 16.4667 88.4999 14.4833Z" fill="#DADADA"/>
<defs>
<linearGradient id="paint0_linear_353_6127" x1="9.9985" y1="1.24664" x2="9.9985" y2="18.334" gradientUnits="userSpaceOnUse">
<stop offset="0.00176378" stop-color="#C994F2"/>
<stop offset="1" stop-color="#E57027"/>
</linearGradient>
<linearGradient id="paint1_linear_353_6127" x1="29.9985" y1="1.24664" x2="29.9985" y2="18.334" gradientUnits="userSpaceOnUse">
<stop offset="0.00176378" stop-color="#C994F2"/>
<stop offset="1" stop-color="#E57027"/>
</linearGradient>
<linearGradient id="paint2_linear_353_6127" x1="49.9984" y1="1.24664" x2="49.9984" y2="18.334" gradientUnits="userSpaceOnUse">
<stop offset="0.00176378" stop-color="#C994F2"/>
<stop offset="1" stop-color="#E57027"/>
</linearGradient>
</defs>
</svg>
