<svg width="28" height="27" viewBox="0 0 28 27" fill="none" xmlns="http://www.w3.org/2000/svg">
<path d="M13.6228 26.2032C11.836 26.2032 10.1569 25.8641 8.58534 25.186C7.01382 24.5079 5.6468 23.5876 4.4843 22.4251C3.3218 21.2626 2.40149 19.8956 1.72336 18.324C1.04524 16.7525 0.706177 15.0733 0.706177 13.2865C0.706177 11.4997 1.04524 9.82057 1.72336 8.24904C2.40149 6.67751 3.3218 5.3105 4.4843 4.148C5.6468 2.9855 7.01382 2.06519 8.58534 1.38706C10.1569 0.708936 11.836 0.369873 13.6228 0.369873C16.7659 0.369873 19.5161 1.35477 21.8734 3.32456C24.2307 5.29435 25.6999 7.76466 26.2812 10.7355H23.6333C23.2242 9.16397 22.4869 7.75928 21.4213 6.52144C20.3557 5.28359 19.0478 4.35251 17.4978 3.72821V4.24487C17.4978 4.95529 17.2449 5.56345 16.739 6.06935C16.2331 6.57525 15.6249 6.82821 14.9145 6.82821H12.3312V9.41154C12.3312 9.77751 12.2074 10.0843 11.9598 10.3319C11.7123 10.5794 11.4055 10.7032 11.0395 10.7032H8.45618V13.2865H11.0395V17.1615H9.74784L3.54784 10.9615C3.48326 11.349 3.42406 11.7365 3.37024 12.124C3.31642 12.5115 3.28951 12.899 3.28951 13.2865C3.28951 16.1067 4.27979 18.5286 6.26034 20.5522C8.2409 22.5758 10.6951 23.5983 13.6228 23.6199V26.2032ZM25.377 25.5574L21.2437 21.424C20.7916 21.6824 20.3072 21.8976 19.7906 22.0699C19.2739 22.2421 18.7249 22.3282 18.1437 22.3282C16.5291 22.3282 15.1567 21.7631 14.0265 20.6329C12.8963 19.5027 12.3312 18.1303 12.3312 16.5157C12.3312 14.9011 12.8963 13.5287 14.0265 12.3985C15.1567 11.2683 16.5291 10.7032 18.1437 10.7032C19.7583 10.7032 21.1307 11.2683 22.2609 12.3985C23.3911 13.5287 23.9562 14.9011 23.9562 16.5157C23.9562 17.097 23.8701 17.6459 23.6978 18.1626C23.5256 18.6792 23.3103 19.1636 23.052 19.6157L27.1853 23.749L25.377 25.5574ZM18.1437 19.7449C19.0478 19.7449 19.8121 19.4327 20.4364 18.8084C21.0607 18.1841 21.3728 17.4199 21.3728 16.5157C21.3728 15.6115 21.0607 14.8473 20.4364 14.223C19.8121 13.5987 19.0478 13.2865 18.1437 13.2865C17.2395 13.2865 16.4753 13.5987 15.851 14.223C15.2267 14.8473 14.9145 15.6115 14.9145 16.5157C14.9145 17.4199 15.2267 18.1841 15.851 18.8084C16.4753 19.4327 17.2395 19.7449 18.1437 19.7449Z" fill="#E57027" fill-opacity="0.55"/>
</svg>
