<svg width="26" height="27" viewBox="0 0 26 27" fill="none" xmlns="http://www.w3.org/2000/svg">
<path d="M19.5 17.7117C18.6767 17.7117 17.94 18.0421 17.3767 18.5598L9.6525 13.9887C9.70667 13.7354 9.75 13.482 9.75 13.2177C9.75 12.9533 9.70667 12.7 9.6525 12.4466L17.29 7.91959C17.875 8.47032 18.6442 8.81178 19.5 8.81178C21.2983 8.81178 22.75 7.33581 22.75 5.50736C22.75 3.67892 21.2983 2.20294 19.5 2.20294C17.7017 2.20294 16.25 3.67892 16.25 5.50736C16.25 5.77171 16.2933 6.02505 16.3475 6.27839L8.71 10.8054C8.125 10.2547 7.35583 9.91325 6.5 9.91325C4.70167 9.91325 3.25 11.3892 3.25 13.2177C3.25 15.0461 4.70167 16.5221 6.5 16.5221C7.35583 16.5221 8.125 16.1806 8.71 15.6299L16.4233 20.212C16.3692 20.4433 16.3367 20.6857 16.3367 20.928C16.3367 22.7014 17.7558 24.1443 19.5 24.1443C21.2442 24.1443 22.6633 22.7014 22.6633 20.928C22.6633 19.1546 21.2442 17.7117 19.5 17.7117Z" fill="black"/>
</svg>
